<svg width="151" height="45" viewBox="0 0 151 45" fill="none" xmlns="http://www.w3.org/2000/svg">
<path d="M6.12452 43.3219H6.11559L6.10667 43.3222C3.43736 43.4175 1.12873 41.2183 1.02802 38.533V38.4366V5.92228C1.12838 3.13617 3.33184 1.02816 6.12452 1.02816H144.981C147.774 1.02816 149.977 3.13627 150.078 5.92248V38.4275C149.978 41.2019 147.68 43.3219 144.876 43.3219H6.12452Z" fill="black" stroke="white"/>
<path d="M54.2756 12.6714C54.2756 13.5162 54.0644 14.2553 53.5364 14.7833C52.9029 15.4169 52.1637 15.7336 51.2134 15.7336C50.263 15.7336 49.5239 15.4169 48.8903 14.7833C48.2567 14.1497 47.9399 13.4106 47.9399 12.4602C47.9399 11.5099 48.2567 10.7707 48.8903 10.1371C49.5239 9.50357 50.263 9.18679 51.2134 9.18679C51.6357 9.18679 52.0581 9.29238 52.4805 9.50357C52.9029 9.71476 53.2197 9.92595 53.4308 10.2427L52.9029 10.7707C52.4805 10.2427 51.9525 10.0315 51.2134 10.0315C50.5798 10.0315 49.9462 10.2427 49.5239 10.7707C48.9959 11.1931 48.7847 11.8266 48.7847 12.5658C48.7847 13.305 48.9959 13.9385 49.5239 14.3609C50.0518 14.7833 50.5798 15.1001 51.2134 15.1001C51.9525 15.1001 52.4805 14.8889 53.0085 14.3609C53.3253 14.0441 53.5364 13.6218 53.5364 13.0938H51.2134V12.249H54.2756V12.6714ZM59.0274 10.0315H56.1763V12.0378H58.8162V12.777H56.1763V14.7833H59.0274V15.628H55.4371V9.29238H59.1329L59.0274 10.0315ZM62.4064 15.5225H61.5616V10.0315H59.7665V9.29238H64.0959V10.0315H62.3008V15.5225H62.4064ZM67.2637 15.5225V9.29238H68.1085V15.5225H67.2637ZM71.5931 15.5225H70.7483V10.0315H68.9532V9.29238H73.177V10.0315H71.3819L71.5931 15.5225ZM81.519 14.6777C80.8854 15.3113 80.1462 15.628 79.1959 15.628C78.2455 15.628 77.5064 15.3113 76.8728 14.6777C76.2392 14.0441 75.9225 13.305 75.9225 12.3546C75.9225 11.4043 76.2392 10.6651 76.8728 10.0315C77.5064 9.39797 78.2455 9.08119 79.1959 9.08119C80.1462 9.08119 80.8854 9.39797 81.519 10.0315C82.1525 10.6651 82.4693 11.4043 82.4693 12.3546C82.4693 13.305 82.1525 14.1497 81.519 14.6777ZM77.5064 14.2553C77.9288 14.6777 78.5623 14.9945 79.1959 14.9945C79.8294 14.9945 80.463 14.7833 80.8854 14.2553C81.3078 13.8329 81.6246 13.1994 81.6246 12.4602C81.6246 11.7211 81.4134 11.0875 80.8854 10.6651C80.463 10.2427 79.8294 9.92595 79.1959 9.92595C78.5623 9.92595 77.9288 10.1371 77.5064 10.6651C77.084 11.0875 76.7672 11.7211 76.7672 12.4602C76.7672 13.1994 76.9784 13.8329 77.5064 14.2553ZM83.5252 15.5225V9.29238H84.4756L87.5378 14.1497V9.29238H88.3826V15.5225H87.5378L84.2644 10.4539V15.5225H83.5252Z" fill="white"/>
<path d="M54.3812 12.6719C54.3812 13.0943 54.2756 13.5166 54.17 13.8334C54.0644 14.1502 53.8532 14.5726 53.5364 14.7838C53.2197 15.1006 52.9029 15.3117 52.4805 15.5229C52.0581 15.7341 51.6357 15.7341 51.2134 15.7341C50.791 15.7341 50.263 15.6285 49.9462 15.5229C49.5239 15.3117 49.2071 15.1006 48.8903 14.7838C48.5735 14.467 48.3623 14.1502 48.1511 13.7278C47.9399 13.3054 47.9399 12.8831 47.9399 12.4607C47.9399 12.0383 48.0455 11.5103 48.1511 11.1936C48.2567 10.8768 48.5735 10.4544 48.8903 10.1376C49.2071 9.82083 49.5239 9.60964 49.9462 9.39846C50.3686 9.18727 50.791 9.18727 51.2134 9.18727C51.4246 9.18727 51.6357 9.18727 51.8469 9.29286C52.0581 9.29286 52.2693 9.39846 52.4805 9.50405C52.6917 9.60965 52.9029 9.71524 53.0085 9.82083C53.2197 9.92643 53.3253 10.032 53.4308 10.2432V10.3488L52.7973 10.9824V10.8768C52.5861 10.6656 52.3749 10.4544 52.1637 10.3488C51.9525 10.2432 51.6357 10.1376 51.2134 10.1376C50.8966 10.1376 50.5798 10.2432 50.263 10.3488C50.0518 10.4544 49.735 10.6656 49.6295 10.8768C49.4183 11.088 49.2071 11.2992 49.1015 11.6159C48.9959 11.9327 48.8903 12.2495 48.8903 12.5663C48.8903 12.8831 48.8903 13.3054 49.1015 13.5166C49.2071 13.8334 49.4183 14.0446 49.6295 14.2558C49.8406 14.467 50.1574 14.6782 50.3686 14.7838C50.5798 14.8894 50.8966 14.995 51.2134 14.995C51.5301 14.995 51.8469 14.8894 52.1637 14.7838C52.4805 14.6782 52.6917 14.467 52.9029 14.2558C53.0085 14.1502 53.2197 13.939 53.2197 13.7278C53.3253 13.5166 53.3253 13.411 53.3253 13.1999H51.0022V12.1439H54.2756V12.6719H54.3812ZM53.9588 13.7278C54.0644 13.411 54.17 12.9887 54.17 12.5663V12.2495H51.319V12.8831H53.642V12.9887C53.642 13.1999 53.642 13.5166 53.5364 13.7278C53.4308 13.939 53.3253 14.1502 53.1141 14.3614C52.7973 14.6782 52.5861 14.7838 52.2693 14.995C51.9525 15.1006 51.6357 15.2061 51.319 15.2061C51.0022 15.2061 50.6854 15.1006 50.3686 14.995C50.0518 14.8894 49.8406 14.6782 49.5239 14.467C49.3127 14.2558 49.1015 14.0446 48.9959 13.7278C48.8903 13.411 48.7847 13.0943 48.7847 12.6719C48.7847 12.2495 48.8903 11.9327 48.9959 11.6159C49.1015 11.2992 49.3127 11.088 49.5239 10.8768C49.735 10.6656 49.9462 10.4544 50.263 10.3488C50.5798 10.2432 50.8966 10.1376 51.2134 10.1376C51.6357 10.1376 51.9525 10.2432 52.1637 10.3488C52.3749 10.4544 52.6917 10.6656 52.7973 10.8768L53.2197 10.4544C53.1141 10.3488 53.0085 10.2432 52.9029 10.1376C52.7973 10.032 52.5861 9.92643 52.3749 9.82083C52.1637 9.71524 51.9525 9.60965 51.7413 9.60965C51.5301 9.50405 51.319 9.50405 51.1078 9.50405C50.6854 9.50405 50.263 9.60964 49.8406 9.71524C49.5239 9.82083 49.1015 10.1376 48.8903 10.3488C48.5735 10.6656 48.3623 10.9824 48.2567 11.2992C48.1511 11.6159 48.0455 12.0383 48.0455 12.5663C48.0455 12.9887 48.1511 13.411 48.2567 13.8334C48.3623 14.1502 48.6791 14.5726 48.8903 14.7838C49.2071 15.1006 49.5239 15.3117 49.8406 15.4173C50.1574 15.5229 50.5798 15.6285 51.1078 15.6285C51.5302 15.6285 51.9525 15.5229 52.3749 15.4173C52.6917 15.3117 53.1141 14.995 53.3253 14.7838C53.642 14.3614 53.8532 14.1502 53.9588 13.7278ZM59.0274 10.1376H56.2819V11.9327H58.9218V12.8831H56.2819V14.6782H59.1329V15.7341H55.3315C55.3315 13.6222 55.3315 11.4048 55.3315 9.29286H59.1329L59.0274 10.1376ZM56.1763 9.92643H58.9218V9.39846H55.4371V15.4173H58.8162V14.7838H55.9651V12.6719H58.605V12.1439H55.9651L56.1763 9.92643ZM62.4064 15.6285H61.456V10.1376H59.6609V9.18727H64.2015V10.1376H62.4064V15.6285ZM61.6672 15.4173H62.3008V9.92643H64.0959V9.39846H59.9777V9.92643H61.7728V15.4173H61.6672ZM67.1581 15.5229V9.18727H68.2141C68.2141 11.2992 68.2141 13.5166 68.2141 15.6285L67.1581 15.5229ZM67.3693 9.39846V15.4173H68.0029V9.39846H67.3693ZM71.5931 15.6285H70.6427V10.1376H68.8476V9.18727H73.2826V10.1376H71.4875V15.4173V15.6285H71.5931ZM70.8539 15.4173H71.3819V9.92643H73.177V9.39846H69.1644V9.92643H70.9595V15.4173H70.8539ZM81.519 14.7838C81.2022 15.1006 80.8854 15.3117 80.463 15.5229C80.0406 15.7341 79.6183 15.7341 79.1959 15.7341C78.7735 15.7341 78.2455 15.6285 77.9288 15.5229C77.5064 15.3117 77.1896 15.1006 76.8728 14.7838C76.556 14.467 76.3448 14.1502 76.1336 13.7278C75.9225 13.3054 75.9225 12.8831 75.9225 12.4607C75.9225 12.0383 76.028 11.5103 76.1336 11.1936C76.3448 10.7712 76.556 10.4544 76.8728 10.1376C77.1896 9.82083 77.5064 9.60964 77.9288 9.39846C78.3511 9.18727 78.7735 9.18727 79.1959 9.18727C79.6183 9.18727 80.1462 9.29286 80.463 9.39846C80.8854 9.60964 81.2022 9.82083 81.519 10.1376C81.8357 10.4544 82.0469 10.7712 82.2581 11.1936C82.4693 11.6159 82.4693 12.0383 82.4693 12.4607C82.4693 12.8831 82.3637 13.411 82.2581 13.7278C82.1525 14.1502 81.8357 14.467 81.519 14.7838ZM80.463 15.3117C80.7798 15.2061 81.2022 14.8894 81.4134 14.6782C81.7301 14.3614 81.9413 14.0446 82.0469 13.7278C82.1525 13.411 82.2581 12.9887 82.2581 12.4607C82.2581 11.9327 82.1525 11.6159 82.0469 11.1936C81.9413 10.8768 81.6245 10.4544 81.4134 10.2432C81.0966 9.92643 80.7798 9.71524 80.463 9.60965C80.1462 9.50405 79.7239 9.39846 79.1959 9.39846C78.7735 9.39846 78.3511 9.50405 77.9288 9.60965C77.612 9.71524 77.1896 10.032 76.9784 10.2432C76.6616 10.56 76.4504 10.8768 76.3448 11.1936C76.1336 11.6159 76.028 11.9327 76.028 12.4607C76.028 12.8831 76.1336 13.3054 76.2392 13.7278C76.3448 14.0446 76.6616 14.467 76.8728 14.6782C77.1896 14.995 77.5064 15.2061 77.8232 15.3117C78.1399 15.4173 78.5623 15.5229 79.0903 15.5229C79.6183 15.5229 80.0406 15.5229 80.463 15.3117ZM77.612 14.1502C77.8232 14.3614 78.0343 14.5726 78.3511 14.6782C78.6679 14.7838 78.8791 14.7838 79.1959 14.7838C79.5127 14.7838 79.8294 14.6782 80.1462 14.5726C80.3574 14.467 80.6742 14.2558 80.7798 14.0446C80.991 13.8334 81.2022 13.6222 81.3078 13.3054C81.4134 12.9887 81.519 12.6719 81.519 12.3551C81.519 12.0383 81.4134 11.6159 81.3078 11.4048C81.2022 11.088 80.991 10.8768 80.7798 10.6656C80.5686 10.4544 80.3574 10.2432 80.0406 10.1376C79.8295 10.032 79.5127 9.92643 79.1959 9.92643C78.8791 9.92643 78.5623 10.032 78.2455 10.1376C78.0343 10.2432 77.7176 10.4544 77.612 10.6656C77.4008 10.8768 77.1896 11.1936 77.084 11.4048C76.9784 11.7215 76.8728 11.9327 76.8728 12.3551C76.8728 12.6719 76.9784 13.0943 77.084 13.3054C77.1896 13.7278 77.4008 13.939 77.612 14.1502ZM78.2455 14.8894C77.9287 14.7838 77.612 14.5726 77.4008 14.3614C77.1896 14.1502 76.9784 13.8334 76.8728 13.6222C76.7672 13.3054 76.6616 12.9887 76.6616 12.5663C76.6616 12.2495 76.7672 11.8271 76.8728 11.6159C76.9784 11.2992 77.1896 10.9824 77.4008 10.7712C77.612 10.56 77.8232 10.3488 78.1399 10.2432C78.4567 10.1376 78.7735 10.032 79.0903 10.032C79.4071 10.032 79.7239 10.1376 80.0406 10.2432C80.3574 10.3488 80.6742 10.56 80.8854 10.7712C81.0966 10.9824 81.3078 11.1936 81.4134 11.5103C81.519 11.8271 81.6246 12.1439 81.6246 12.5663C81.6246 12.8831 81.519 13.3054 81.4134 13.5166C81.3078 13.8334 81.0966 14.1502 80.8854 14.3614C80.6742 14.5726 80.463 14.7838 80.1462 14.8894C79.8294 14.995 79.5127 15.1006 79.1959 15.1006C78.8791 14.995 78.5623 14.995 78.2455 14.8894ZM83.4197 15.5229V9.18727H84.4756L87.3266 13.8334V9.18727H88.3826C88.3826 11.2992 88.3826 13.5166 88.3826 15.6285H87.4322L84.37 10.7712V15.6285L83.4197 15.5229ZM83.6308 9.39846V15.4173H84.1588V10.1376L87.5378 15.5229H88.1714V9.39846H87.6434V14.5726L84.4756 9.39846H83.6308Z" fill="white"/>
<path d="M75.7111 24.7096C73.1769 24.7096 71.2762 26.6103 71.2762 29.1445C71.2762 31.6788 73.2825 33.5795 75.7111 33.5795C78.2454 33.5795 80.1461 31.6788 80.1461 29.1445C80.2517 26.5047 78.2454 24.7096 75.7111 24.7096ZM75.7111 31.7844C74.3384 31.7844 73.1769 30.6228 73.1769 29.0389C73.1769 27.455 74.3384 26.2935 75.7111 26.2935C77.0839 26.2935 78.2454 27.3494 78.2454 29.0389C78.2454 30.6228 77.0839 31.7844 75.7111 31.7844ZM66.1021 24.7096C63.5678 24.7096 61.6671 26.6103 61.6671 29.1445C61.6671 31.6788 63.6734 33.5795 66.1021 33.5795C68.6363 33.5795 70.537 31.6788 70.537 29.1445C70.537 26.5047 68.5307 24.7096 66.1021 24.7096ZM66.1021 31.7844C64.7293 31.7844 63.5678 30.6228 63.5678 29.0389C63.5678 27.455 64.7293 26.2935 66.1021 26.2935C67.4748 26.2935 68.6363 27.3494 68.6363 29.0389C68.5307 30.6228 67.4748 31.7844 66.1021 31.7844ZM54.4867 26.0823V27.983H58.9216C58.816 29.0389 58.3937 29.8837 57.8657 30.4117C57.2321 31.0452 56.1762 31.7844 54.4867 31.7844C51.7412 31.6788 49.6293 29.4613 49.6293 26.7159C49.6293 23.9704 51.8468 21.7529 54.4867 21.7529C55.965 21.7529 57.1265 22.3865 57.9713 23.1256L59.344 21.7529C58.1825 20.697 56.7042 19.8522 54.6979 19.8522C51.0021 19.8522 47.7286 23.0201 47.7286 26.7159C47.7286 30.4117 50.8965 33.5795 54.6979 33.5795C56.8098 33.5795 58.1825 32.9459 59.4496 31.5732C60.7167 30.3061 61.1391 28.511 61.1391 27.2438C61.1391 26.8214 61.1391 26.3991 61.0335 26.0823H54.4867ZM101.793 27.5606C101.371 26.5047 100.315 24.7096 97.9916 24.7096C95.6685 24.7096 93.8734 26.5047 93.8734 29.1445C93.8734 31.6788 95.7741 33.5795 98.2028 33.5795C100.209 33.5795 101.476 32.3124 101.793 31.5732L100.315 30.5173C99.7867 31.2564 99.1531 31.7844 98.0972 31.7844C97.0412 31.7844 96.4077 31.362 95.8797 30.4117L101.793 27.8774V27.5606ZM95.7741 29.0389C95.7741 27.3494 97.1468 26.3991 98.0972 26.3991C98.8363 26.3991 99.5755 26.8214 99.7867 27.3494L95.7741 29.0389ZM90.8111 33.2627H92.8174V20.2746H90.8111V33.2627ZM87.7489 25.6599C87.2209 25.1319 86.3762 24.604 85.3202 24.604C83.1028 24.604 81.0965 26.6103 81.0965 29.0389C81.0965 31.4676 83.1028 33.3683 85.3202 33.3683C86.3762 33.3683 87.2209 32.8403 87.6433 32.3124H87.7489V32.9459C87.7489 34.6354 86.7986 35.5858 85.3202 35.5858C84.1587 35.5858 83.3139 34.741 83.1028 34.0019L81.5188 34.8466C82.0468 36.0082 83.3139 37.4865 85.4258 37.4865C87.7489 37.4865 89.544 36.1138 89.544 32.9459V25.0263H87.6433V25.6599H87.7489ZM85.4258 31.7844C84.0531 31.7844 82.8916 30.6228 82.8916 29.0389C82.8916 27.455 84.0531 26.2935 85.4258 26.2935C86.7986 26.2935 87.8545 27.455 87.8545 29.0389C87.8545 30.6228 86.7986 31.7844 85.4258 31.7844ZM110.874 20.2746H106.228V33.2627H108.234V28.4054H110.98C113.197 28.4054 115.203 26.8214 115.203 24.3928C115.203 21.9641 112.986 20.2746 110.874 20.2746ZM110.98 26.5047H108.129V22.0697H110.98C112.458 22.0697 113.303 23.3368 113.303 24.2872C113.092 25.3431 112.247 26.5047 110.98 26.5047ZM122.912 24.604C121.434 24.604 119.955 25.2375 119.427 26.6103L121.222 27.3494C121.645 26.6103 122.278 26.3991 123.017 26.3991C124.073 26.3991 125.024 27.0326 125.129 28.0886V28.1942C124.813 27.983 123.968 27.6662 123.123 27.6662C121.222 27.6662 119.427 28.7221 119.427 30.6228C119.427 32.418 121.011 33.5795 122.701 33.5795C124.073 33.5795 124.707 32.9459 125.235 32.3124H125.341V33.3683H127.241V28.4054C126.819 25.9767 125.024 24.604 122.912 24.604ZM122.701 31.7844C122.067 31.7844 121.117 31.4676 121.117 30.6228C121.117 29.5669 122.278 29.2501 123.229 29.2501C124.073 29.2501 124.496 29.4613 125.024 29.6725C124.813 30.9396 123.757 31.7844 122.701 31.7844ZM133.577 24.9208L131.359 30.5173H131.254L128.931 24.9208H126.819L130.198 32.8403L128.192 37.1697H130.198L135.478 24.9208H133.577ZM116.154 33.2627H118.16V20.2746H116.154V33.2627Z" fill="white"/>
<path d="M15.7336 9.82077C15.4168 10.1376 15.3112 10.6655 15.3112 11.2991V34.3187C15.3112 34.9522 15.5224 35.4802 15.8392 35.797L15.9448 35.9026L28.8273 23.0201V22.8089L15.7336 9.82077Z" fill="white"/>
<path d="M33.6847 27.3492L29.4609 23.1254V22.8086L33.6847 18.5848L33.7902 18.6904L38.8588 21.6471C40.3371 22.4918 40.3371 23.8646 38.8588 24.7093L33.6847 27.3492Z" fill="white"/>
<path d="M33.4734 27.5605L29.0385 23.2312L16.0504 36.2193C16.5783 36.7472 17.3175 36.7472 18.2678 36.3249L33.4734 27.5605Z" fill="white"/>
<path d="M33.4734 18.2684L18.2678 9.60963C17.3175 9.08166 16.5783 9.18725 16.0504 9.71522L29.0385 22.5977L33.4734 18.2684Z" fill="white"/>
<path d="M33.0511 27.1382L17.9511 35.5858C17.1063 36.1138 16.3671 36.0082 15.8392 35.5858L15.7336 35.6914L15.8392 35.797C16.3671 36.2194 17.1063 36.325 17.9511 35.797L33.0511 27.1382Z" fill="#FEFEFE" fill-opacity="0.2"/>
<path d="M15.7336 35.5856C15.4168 35.2688 15.3112 34.7409 15.3112 34.1073V34.2129C15.3112 34.8465 15.5224 35.3744 15.7336 35.5856ZM38.2252 24.1814L33.0511 27.1381L33.1567 27.2437L38.2252 24.1814C38.9644 23.8646 39.2811 23.3367 39.2811 22.8087C39.2811 23.3367 38.8588 23.759 38.2252 24.1814Z" fill="#FEFEFE" fill-opacity="0.2"/>
</svg>
