<svg width="179" height="59" viewBox="0 0 179 59" fill="none" xmlns="http://www.w3.org/2000/svg">
<g clip-path="url(#clip0_6:4)">
<path d="M118.47 19.8158L108.954 57.9773H124.361L134.266 18.2178L118.47 19.8158Z" fill="white"/>
<path d="M169.354 18.1538C164.758 17.7064 157.572 19.1127 154.011 21.7974C153.946 20.519 153.688 19.2405 153.364 18.026L139.704 19.688C140.222 23.4594 139.704 27.6143 138.345 33.2394L132.195 57.9772H147.602L153.882 32.6641C155.435 30.4908 157.895 29.0206 159.967 29.0206C162.557 29.0206 163.139 30.8743 162.362 33.9426L156.407 57.9772H171.814L178.417 31.8331C180.165 24.8017 177.835 18.9209 169.354 18.1538Z" fill="white"/>
<path d="M136.791 7.41495C136.791 3.32394 133.166 0 128.569 0C123.908 0 119.959 3.32394 119.959 7.41495C119.959 11.506 123.779 14.8299 128.31 14.8299C133.036 14.8938 136.791 11.506 136.791 7.41495Z" fill="#FFCC00"/>
<path d="M99.8257 18.6013L94.9704 29.7237C93.1577 33.8786 91.604 37.8418 90.1798 41.741L89.9856 18.6013H76.0669L64.4789 41.9328L65.7089 18.0899L50.366 20.0076L53.4734 58.0412H67.0684C67.0684 58.0412 77.3617 37.5222 78.268 35.0932L78.3975 57.9772H92.3161L115.298 18.6013H99.8257Z" fill="white"/>
<path d="M33.7931 17.6425C30.7505 17.5785 27.7078 18.2817 24.9888 19.688C26.5425 14.8299 27.5783 9.84397 28.0962 4.79413C28.1609 3.64354 28.2257 2.49294 28.1609 1.34235L11.9765 3.32393C12.1707 5.88081 11.7823 9.90789 9.71067 18.6013L1.94213 50.4344C1.55371 51.9686 0.712116 54.8451 0 55.9317C6.3443 58.1051 13.0123 59.1278 19.6803 59C24.7298 59 28.7436 58.1051 32.8221 55.74C39.8137 51.6489 44.1512 44.3618 45.9638 37.3304C49.2655 24.0986 43.8275 17.6425 33.7931 17.6425ZM29.7146 38.0336C27.9667 45.3207 25.6362 48.5807 21.7519 48.5807C20.4571 48.6446 19.2271 48.325 18.1266 47.6858L22.3993 30.2351C23.6293 29.0206 25.2477 28.3813 26.9309 28.3174C30.362 28.3174 31.592 30.2351 29.7146 38.0336Z" fill="white"/>
<path d="M147.796 4.6024C147.473 4.41064 147.149 4.34672 146.761 4.34672C146.437 4.34672 146.048 4.47456 145.66 4.73025C145.272 4.98594 144.754 5.43339 144.236 6.20045L142.358 14.8938H138.863L140.74 6.13653C140.934 5.30555 140.999 4.6024 140.999 4.02711C140.999 3.45181 140.934 2.94043 140.805 2.49298L144.042 1.21454C144.171 1.47023 144.236 1.78984 144.301 2.17337C144.365 2.5569 144.365 3.00435 144.365 3.38789C144.948 2.81259 145.595 2.30121 146.178 1.91768C146.825 1.53415 147.473 1.34238 148.12 1.34238C148.379 1.34238 148.573 1.34238 148.703 1.4063C148.832 1.47023 149.091 1.53415 149.285 1.66199L147.796 4.6024Z" fill="#FFCC00"/>
<path d="M159.384 11.3781C159.32 11.8256 159.255 12.337 159.32 12.8483C159.384 13.3597 159.449 13.8072 159.643 14.0629L156.601 15.2774C156.471 15.0217 156.277 14.766 156.212 14.4464C156.083 14.1268 156.018 13.8072 156.018 13.4876C155.5 13.935 154.918 14.3185 154.27 14.6382C153.623 14.9578 152.911 15.1495 152.134 15.1495C151.098 15.1495 150.256 14.8938 149.674 14.4464C149.091 13.935 148.832 13.2958 148.832 12.4648C148.832 12.2091 148.832 11.9534 148.897 11.5699C148.962 11.2503 149.026 10.8028 149.091 10.3554L150.904 1.85376L154.529 1.21454L152.716 9.71616C152.652 10.0358 152.587 10.4193 152.522 10.7389C152.457 11.0585 152.457 11.3142 152.457 11.506C152.457 11.8256 152.522 12.0174 152.716 12.2091C152.911 12.4009 153.105 12.4648 153.299 12.4648C153.558 12.4648 153.817 12.4009 154.141 12.273C154.4 12.1452 154.723 11.9534 154.982 11.7617C155.241 11.5699 155.5 11.3781 155.694 11.1224C155.889 10.8668 156.083 10.675 156.212 10.4832L158.025 1.91768L161.586 1.21454L159.384 11.3781Z" fill="#FFCC00"/>
</g>
<defs>
<clipPath id="clip0_6:4">
<rect width="179" height="59" fill="white"/>
</clipPath>
</defs>
</svg>
